<svg width="56" height="60" viewBox="0 0 56 60" fill="none" xmlns="http://www.w3.org/2000/svg">
<path d="M53.2418 50.7305C53.2296 51.5797 53.0062 52.355 52.5715 53.0564C52.1367 53.7578 51.5625 54.3157 50.8488 54.73C50.1351 55.1442 49.3537 55.3452 48.5045 55.3328L39.0578 55.1953C38.6097 55.1888 38.2227 55.0298 37.8969 54.7183C37.595 54.3837 37.4473 53.9922 37.4537 53.5441L37.7502 32.8816C37.757 32.4098 37.9159 32.0229 38.2269 31.7207C38.5615 31.4189 38.9529 31.2712 39.4011 31.2778L48.8478 31.4153C49.6969 31.4277 50.4723 31.6513 51.1738 32.0861C51.8753 32.521 52.4333 33.0954 52.8477 33.8092C53.2621 34.523 53.4631 35.3162 53.4505 36.189L53.2418 50.7305ZM49.0315 50.6692L49.2402 36.1277C49.2449 35.7974 49.094 35.6301 48.7874 35.6256L42.4188 35.5329C42.1122 35.5284 41.9567 35.6795 41.9523 35.9862L41.7425 50.5985C41.7381 50.9051 41.8893 51.0607 42.1959 51.0652L48.5645 51.1579C48.6824 51.1596 48.7892 51.114 48.8849 51.021C48.981 50.9044 49.0298 50.7872 49.0315 50.6692Z" fill="#0A3442"/>
<path d="M48.3854 30.0836L47.0525 30.0642L36.9086 3.27058L26.0001 29.7576L24.6843 29.7385L36.266 1.60333L37.5989 1.62274L48.3854 30.0836ZM35.9897 7.75231L36.7129 6.1904L45.7368 30.045L44.421 30.0258L35.9897 7.75231ZM34.6257 11.0995L35.2993 9.41724L43.0881 30.0064L41.7553 29.987L34.6257 11.0995ZM33.2779 14.4982L33.952 12.7818L40.4395 29.9679L39.1237 29.9487L33.2779 14.4982ZM18.0712 29.6422L16.7384 29.6228L28.3372 1.4879L29.6529 1.50705L18.0712 29.6422ZM20.7028 29.6805L19.387 29.6614L30.9858 1.52646L32.3016 1.54561L20.7028 29.6805ZM23.3685 29.7193L22.0357 29.6999L33.6344 1.56502L34.9502 1.58418L23.3685 29.7193Z" fill="#0A3442"/>
<path d="M16.59 27.5021C16.59 27.9454 16.4267 28.3304 16.1 28.6571C15.7967 28.9604 15.435 29.1121 15.015 29.1121H2.975C2.555 29.1121 2.18167 28.9604 1.855 28.6571C1.55167 28.3304 1.4 27.9454 1.4 27.5021V7.06209C1.4 6.59542 1.55167 6.21042 1.855 5.90709C2.18167 5.60376 2.555 5.45209 2.975 5.45209H3.955C4.39833 5.45209 4.77167 5.60376 5.075 5.90709C5.40167 6.21042 5.565 6.59542 5.565 7.06209V24.5271C5.565 24.8304 5.705 24.9821 5.985 24.9821H15.015C15.435 24.9821 15.7967 25.1338 16.1 25.4371C16.4267 25.7404 16.59 26.1254 16.59 26.5921V27.5021Z" fill="#0A3442"/>
<path d="M6.05721 29.9165L7.39008 29.9359L17.534 56.7295L28.4425 30.2424L29.7583 30.2615L18.1766 58.3967L16.8438 58.3773L6.05721 29.9165ZM18.4529 52.2477L17.7297 53.8096L8.70586 29.955L10.0216 29.9742L18.4529 52.2477ZM19.817 48.9005L19.1433 50.5828L11.3545 29.9936L12.6874 30.013L19.817 48.9005ZM21.1647 45.5018L20.4906 47.2183L14.0031 30.0322L15.3189 30.0513L21.1647 45.5018ZM36.3714 30.3578L37.7043 30.3772L26.1055 58.5121L24.7897 58.493L36.3714 30.3578ZM33.7398 30.3195L35.0556 30.3387L23.4568 58.4736L22.141 58.4544L33.7398 30.3195ZM31.0741 30.2807L32.407 30.3001L20.8082 58.435L19.4924 58.4159L31.0741 30.2807Z" fill="#0A3442"/>
</svg>
